<?xml version="1.0" encoding="UTF-8"?>
<svg xmlns="http://www.w3.org/2000/svg" xmlns:xlink="http://www.w3.org/1999/xlink" width="21px" height="34px" viewBox="0 0 21 33" version="1.1">
<g id="surface1">
<path style=" stroke:none;fill-rule:nonzero;fill:rgb(0%,0%,0%);fill-opacity:1;" d="M 4.199219 2.0625 C 1.882812 2.0625 0 3.914062 0 6.1875 L 0 26.8125 C 0 29.085938 1.882812 30.9375 4.199219 30.9375 L 12.601562 30.9375 C 17.238281 30.9375 21 27.246094 21 22.6875 C 21 19.691406 19.371094 17.0625 16.929688 15.617188 C 18.160156 14.179688 18.898438 12.328125 18.898438 10.3125 C 18.898438 5.753906 15.140625 2.0625 10.5 2.0625 Z M 10.5 14.4375 L 4.199219 14.4375 L 4.199219 6.1875 L 10.5 6.1875 C 12.816406 6.1875 14.699219 8.039062 14.699219 10.3125 C 14.699219 12.585938 12.816406 14.4375 10.5 14.4375 Z M 4.199219 18.5625 L 12.601562 18.5625 C 14.917969 18.5625 16.800781 20.414062 16.800781 22.6875 C 16.800781 24.960938 14.917969 26.8125 12.601562 26.8125 L 4.199219 26.8125 Z M 4.199219 18.5625 "/>
</g>
</svg>
